<?xml version="1.0" encoding="UTF-8"?>
<svg id="Layer_1" data-name="Layer 1" xmlns="http://www.w3.org/2000/svg" viewBox="0 0 243.29 246.37">
  <defs>
    <style>
      .cls-1 {
        fill: #749a02;
      }

      .cls-2 {
        fill: #3d5301;
      }

      .cls-3 {
        fill: #060503;
      }

      .cls-4 {
        fill: #bc7e00;
      }

      .cls-5 {
        fill: #f0a519;
      }

      .cls-6 {
        fill: #a1f17e;
      }
    </style>
  </defs>
  <path class="cls-3" d="M0,113.73c.62-30.9,11.9-56.53,37.24-75.19,3.61-2.66,2.7-7.65-1.77-10.51-5.55-3.55-8.2-8.56-7.26-15.21,.92-6.47,4.77-10.66,10.91-12.21,6.1-1.54,12.5-.31,15.29,5.42,2.15,4.42,1.52,10.21,2.02,15.41,.18,1.83,.03,3.69,.03,5.54,1.48-.13,3.03,0,4.43-.41,43.61-12.58,81.82-.81,115.79,26.91,7.39,6.03,12.68,7.7,20.18,2.02,2.21-1.67,4.96-2.66,7.52-3.84,4.75-2.19,8.9-4.27,10.92-10.17,2.32-6.79,10.65-9.45,17.64-7.19,6.87,2.22,11.31,9.37,10.18,16.38-1.18,7.3-7.21,11.79-14.44,12.89-4.38,.66-8.6,3.48-12.5,5.95-4.76,3-11.54,5.91-12.88,10.26-1.07,3.49,4.8,9.01,7.39,13.73,15.58,28.34,21.73,58.15,12.44,89.8-11.13,37.92-44.48,61.83-86.9,63.03C66.52,248.31-.06,183.5,0,113.73ZM65.44,36.08c-3.95,.14-4.92,1.93-3.17,5.46,.88,1.78,1.59,3.67,2.18,5.56,.92,2.9,1.92,3.78,4.67,1.35,3.32-2.95,7.13-5.35,10.73-7.99,13.12-.06,26.24-.12,39.36-.21,.68,0,1.36-.35,2.04-.54-.51-.36-.98-.91-1.54-1.05-17.9-4.65-35.88-7.88-54.26-2.57Zm-14.75,124.32c2.54-4.01,5.08-8.03,7.62-12.04,.95-7.26,.86-13.71-9.15-13.93-1.83-.04-3.63-1.43-5.44-2.2-4.98-4.42-5.98-9.81-3.88-15.96,.16-2.84,.79-5.76,.39-8.52-.95-6.49-2.39-12.91-3.63-19.36,2.79-5.96,5.57-11.92,8.36-17.88,.67-1.43,2.02-2.94,1.86-4.27-.38-3.25-1.39-6.44-2.28-9.61-1.04-3.66-2.23-7.27-3.35-10.9-3.56,2.86-7.12,5.71-10.69,8.57-4.96,6.99-9.91,13.98-14.87,20.98-6.51,9.77-7.01,21.01-7.82,32.17,.9,7.27,1.79,14.54,2.69,21.81,3.28,9.35,6.57,18.7,9.85,28.05,3.08,5.27,6.17,10.53,9.25,15.8,2.87,4.04,5.58,8.21,8.72,12.03,.9,1.09,3.3,2,4.55,1.59,9.12-2.97,10.55-5.17,10.55-14.9,0-2.32,.34-4.72-.11-6.95-.32-1.6-1.7-2.99-2.61-4.48Zm167.52,11.67c-.3-8.59-.59-17.19-.89-25.78-.65-3.74-.57-7.8-2.07-11.15-6-13.42-12.47-26.62-18.86-39.87-.44-.91-1.59-1.47-2.41-2.19-.21,.56-.59,1.11-.61,1.68-.31,7.29-.73,14.58-.81,21.87-.11,9.26,.06,18.52,.11,27.78-.01,6.54-.03,13.08-.04,19.62q-.65,11.82,10.51,15.6c1.26,.43,2.51,.89,3.76,1.32,10.24,3.55,10.55,3.34,11.39-7.91,.02-.33-.06-.66-.09-.99Zm-118.92-42.69c0-.23,0-.46,0-.69,10.14,0,20.28-.06,30.42,.02,5.47,.04,10.98,0,16.4,.61,5.47,.62,9.93,3.37,11.19,9.16,1.34,6.19-.03,11.76-5.97,15.06-3.45,1.92-7.14,3.79-10.95,4.59-25.35,5.29-50.96,4.13-76.54,2.26-4.24-.31-6.08,.03-5.6,4.83,.45,4.45,.68,9.08-.03,13.46-1.54,9.56,3.67,15.44,11.27,18.07,9.59,3.33,19.82,5.84,29.92,6.5,27.66,1.82,53.27-5.76,77.13-19.63,4.22-2.45,6.47-5.59,6-10.89-.52-5.78-.07-11.64-.03-17.47,.12-19.97,.32-39.95,.29-59.92,0-3.91-.01-7.91-6.56-4.69-2.45,1.21-8.62-.81-10.15-3.22-1.69-2.67,0-7.47,.22-11.35,.08-1.46,.83-3.42,.16-4.29-5.82-7.49-11.76-14.9-18-22.03-1.39-1.58-4.12-2.74-6.27-2.79-18.14-.39-36.28-.58-54.43-.55-2.41,0-5.32,.94-7.15,2.46-9.57,7.99-19.1,16.07-28.21,24.57-12.8,11.94-13.84,21.28-5.22,36.74,.81,1.45,.85,4.19,.01,5.58-5.3,8.71-3.87,12.94,6.23,13.41,15.26,.72,30.57,.19,45.87,.19Zm41.75,105.3c3.51-.34,9.86-.54,16.06-1.6,23.45-4.03,41.97-15.15,52.68-37.34,1.5-3.12,1.33-4.52-2.11-5.75-6.88-2.46-13.57-5.42-20.43-7.95-1.32-.49-3.47-.56-4.47,.2-15.9,12.11-34.29,18.71-53.58,21.58-25.54,3.8-51.59,7.14-72.87-13.81-.97-.95-5.19,1.4-7.89,2.21,.34,.91,.42,2.08,1.05,2.68,24.91,23.64,53.31,39.52,91.56,39.78Zm24.39-152.49c1.87,2.38,2.9,4.89,4.66,5.61,1.9,.78,5.06,.71,6.68-.41,13.21-9.21,26.22-18.72,39.19-28.27,.97-.71,1.21-2.4,1.79-3.64-1.44,0-3.11-.48-4.28,.08-14.47,7.06-28.9,14.19-43.23,21.52-1.78,.91-2.93,3.04-4.82,5.1Zm-67.14,63.62c0-3.49,.17-6.99-.11-10.46-.08-1.03-1.4-2.76-2.21-2.79-4.14-.18-8.31-.08-12.42,.33-.83,.08-2.11,1.89-2.14,2.94-.19,6.81-.21,13.63,.03,20.43,.04,1.02,1.65,2.73,2.68,2.85,14.17,1.72,14.18,1.66,14.18-12.3,0-.33,0-.66,0-1Zm18.16-.1c0-2.82-.28-5.68,.06-8.46,.58-4.67-1.02-5.76-5.71-5.33-10.15,.93-10.18,.62-10.18,10.71,0,1.83,0,3.65,0,5.48,0,11.4,0,11.24,11.48,11.04,3.5-.06,4.74-.99,4.41-4.49-.28-2.96-.06-5.97-.06-8.96Zm2.47-1.02v2.49c0,12.62,.01,12.67,12.77,10.01,1.12-.23,2.74-1.84,2.78-2.85,.24-6.96,.19-13.93,.02-20.89-.02-.77-1.36-2.05-2.2-2.16-12.71-1.58-13.37-.98-13.37,11.41v1.99Zm-40.28,1.93c0-13.57,0-13.64-12.05-13.6-1.09,0-3.07,1.72-3.12,2.7-.28,6.47-.27,12.96-.03,19.44,.04,1.06,1.55,2.79,2.6,2.97,12.59,2.2,12.6,2.13,12.6-10.51,0-.33,0-.66,0-1Zm58.64-3.09c0,3.33-.12,6.66,.09,9.98,.05,.85,1.57,2.41,1.73,2.33,4.92-2.55,10.72-4.39,14.22-8.29,1.95-2.17,1.64-9.57-.47-11.45-3.41-3.04-9.15-3.46-13.9-4.99-.56,2.98-1.17,5.94-1.64,8.93-.18,1.14-.03,2.32-.03,3.49ZM59.42,62.93c-.33-.96-.43-1.28-.55-1.58-4.55-11.42-9.08-22.84-13.69-34.24-.25-.63-1.09-1.02-1.66-1.52-.09,1.01-.45,2.09-.24,3.03,2.67,11.65,5.39,23.3,8.2,34.92,.39,1.62,1.31,3.11,1.98,4.66,2.05-1.82,4.1-3.63,5.95-5.27ZM41.98,7.59c-1.08,0-2.16,.02-3.23,.02-1.89,2.83-5.51,5.86-5.21,8.43,.31,2.66,4.41,6.73,6.88,6.75,2.39,.01,6.44-4.15,6.75-6.83,.29-2.56-3.3-5.56-5.18-8.37ZM227.43,41.14c-1.05-.03-2.1-.05-3.15-.08-1.96,2.76-5.65,5.7-5.4,8.24,.27,2.69,4.31,6.97,6.67,6.95,2.55-.02,6.73-3.99,7.11-6.67,.35-2.52-3.33-5.61-5.23-8.44Z"/>
  <path class="cls-5" d="M99.3,129.38c-15.29,0-30.61,.53-45.87-.19-10.1-.47-11.53-4.71-6.23-13.41,.84-1.39,.8-4.12-.01-5.58-8.63-15.46-7.58-24.81,5.22-36.74,9.12-8.5,18.64-16.58,28.21-24.57,1.83-1.52,4.74-2.46,7.15-2.46,18.14-.03,36.29,.16,54.43,.55,2.14,.05,4.88,1.2,6.27,2.79,6.25,7.13,12.18,14.54,18,22.03,.67,.87-.08,2.83-.16,4.29-.22,3.87-1.91,8.68-.22,11.35,1.53,2.41,7.7,4.43,10.15,3.22,6.55-3.22,6.55,.78,6.56,4.69,.03,19.97-.17,39.95-.29,59.92-.03,5.83-.48,11.69,.03,17.47,.47,5.31-1.78,8.44-6,10.89-23.85,13.87-49.46,21.45-77.13,19.63-10.1-.67-20.33-3.18-29.92-6.5-7.6-2.64-12.81-8.51-11.27-18.07,.71-4.38,.47-9.01,.03-13.46-.48-4.8,1.36-5.14,5.6-4.83,25.58,1.87,51.19,3.03,76.54-2.26,3.81-.8,7.5-2.67,10.95-4.59,5.94-3.3,7.31-8.88,5.97-15.06-1.26-5.79-5.72-8.54-11.19-9.16-5.42-.61-10.93-.56-16.4-.61-10.14-.08-20.28-.02-30.42-.02,0,.23,0,.46,0,.69Zm.02-57.09c-9.48,0-18.97-.11-28.45,.03-12.82,.18-21.29,7.63-21.54,18.7-.27,12.02,7.11,20.13,20.16,20.47,19.79,.52,39.6,.54,59.39,.04,13.33-.34,21.41-8.8,21.02-20.37-.38-11.14-9.1-18.66-22.12-18.85-9.48-.14-18.97-.03-28.45-.03Z"/>
  <path class="cls-4" d="M141.05,234.68c-38.24-.26-66.65-16.13-91.56-39.78-.63-.6-.71-1.78-1.05-2.68,2.7-.81,6.92-3.16,7.89-2.21,21.28,20.95,47.34,17.61,72.87,13.81,19.29-2.87,37.68-9.48,53.58-21.58,.99-.76,3.15-.69,4.47-.2,6.85,2.53,13.55,5.49,20.43,7.95,3.44,1.23,3.62,2.64,2.11,5.75-10.71,22.19-29.23,33.3-52.68,37.34-6.2,1.07-12.55,1.27-16.06,1.6Z"/>
  <path class="cls-2" d="M20.35,157.31c-3.28-9.35-6.57-18.7-9.85-28.05,11.07,.99,22.15,1.98,33.22,2.97,1.81,.77,3.61,2.16,5.44,2.2,10.01,.22,10.1,6.67,9.15,13.93-.97,.11-2.02,.02-2.91,.36-4,1.54-7.83,3.77-11.95,4.69-7.61,1.69-15.39,2.64-23.1,3.9Z"/>
  <path class="cls-2" d="M36.6,88.4c1.24,6.45,2.68,12.87,3.63,19.36,.4,2.76-.23,5.67-.39,8.52-1.75-.51-3.5-1.03-5.26-1.52-8.92-2.44-17.85-4.87-26.77-7.31,.81-11.16,1.31-22.39,7.82-32.17,1.58,.77,3.26,1.4,4.73,2.35,5.45,3.53,10.83,7.17,16.24,10.77Z"/>
  <path class="cls-2" d="M192.69,144.42c-.05-9.26-.22-18.52-.11-27.78,.08-7.29,.5-14.58,.81-21.87,.02-.57,.4-1.12,.61-1.68,.82,.72,1.97,1.28,2.41,2.19,6.38,13.24,12.85,26.45,18.86,39.87,1.5,3.35,1.42,7.42,2.07,11.15-8.21-.62-16.43-1.24-24.64-1.86Z"/>
  <path class="cls-1" d="M192.69,144.42c8.21,.62,16.43,1.24,24.64,1.86,.29,8.59,.59,17.19,.89,25.78-8.52-2.67-17.04-5.35-25.57-8.02,.01-6.54,.03-13.08,.04-19.62Z"/>
  <path class="cls-1" d="M7.81,107.45c8.92,2.43,17.85,4.86,26.77,7.31,1.76,.48,3.51,1.01,5.26,1.52-2.11,6.15-1.11,11.54,3.88,15.96-11.07-.99-22.15-1.98-33.22-2.97-.9-7.27-1.79-14.54-2.69-21.81Z"/>
  <path class="cls-1" d="M36.6,88.4c-5.41-3.6-10.79-7.24-16.24-10.77-1.47-.95-3.15-1.58-4.73-2.35,4.96-6.99,9.91-13.98,14.87-20.98,4.82,5.4,9.64,10.81,14.46,16.21-2.79,5.96-5.57,11.92-8.36,17.88Z"/>
  <path class="cls-4" d="M165.44,82.19c1.9-2.06,3.05-4.19,4.82-5.1,14.33-7.33,28.76-14.47,43.23-21.52,1.16-.57,2.84-.08,4.28-.08-.58,1.24-.83,2.93-1.79,3.64-12.97,9.55-25.98,19.06-39.19,28.27-1.62,1.13-4.78,1.19-6.68,.41-1.76-.72-2.79-3.23-4.66-5.61Z"/>
  <path class="cls-1" d="M20.35,157.31c7.71-1.26,15.49-2.21,23.1-3.9,4.13-.92,7.95-3.15,11.95-4.69,.89-.34,1.94-.25,2.91-.36-2.54,4.01-5.08,8.03-7.62,12.04-1.04,.88-2.18,1.67-3.1,2.66-.94,1-1.45,2.69-2.56,3.22-5.07,2.44-10.28,4.57-15.44,6.82-3.08-5.27-6.17-10.53-9.25-15.8Z"/>
  <path class="cls-6" d="M98.3,145.81c0,.33,0,.66,0,1,0,13.96,0,14.01-14.18,12.3-1.04-.13-2.65-1.83-2.68-2.85-.24-6.8-.22-13.62-.03-20.43,.03-1.04,1.3-2.85,2.14-2.94,4.12-.41,8.29-.51,12.42-.33,.81,.04,2.13,1.76,2.21,2.79,.28,3.47,.11,6.97,.11,10.46Z"/>
  <path class="cls-6" d="M116.45,145.71c0,2.99-.22,6,.06,8.96,.33,3.5-.9,4.43-4.41,4.49-11.48,.19-11.48,.36-11.48-11.04,0-1.83,0-3.65,0-5.48,0-10.09,.03-9.78,10.18-10.71,4.69-.43,6.29,.65,5.71,5.33-.34,2.78-.06,5.63-.06,8.46Z"/>
  <path class="cls-6" d="M118.92,144.7v-1.99c0-12.4,.66-12.99,13.37-11.41,.84,.1,2.18,1.39,2.2,2.16,.17,6.96,.22,13.94-.02,20.89-.04,1.01-1.66,2.62-2.78,2.85-12.76,2.66-12.77,2.6-12.77-10.01v-2.49Z"/>
  <path class="cls-6" d="M78.64,146.62c0,.33,0,.66,0,1,0,12.64-.01,12.7-12.6,10.51-1.05-.18-2.56-1.91-2.6-2.97-.24-6.47-.26-12.97,.03-19.44,.04-.99,2.03-2.7,3.12-2.7,12.05-.03,12.05,.04,12.05,13.6Z"/>
  <path class="cls-2" d="M29.6,173.11c5.16-2.25,10.37-4.38,15.44-6.82,1.11-.53,1.61-2.22,2.56-3.22,.93-.99,2.06-1.78,3.1-2.66,.91,1.49,2.29,2.88,2.61,4.48,.45,2.23,.11,4.63,.11,6.95,0,9.73-1.42,11.93-10.55,14.9-1.25,.41-3.65-.5-4.55-1.59-3.14-3.82-5.85-7.99-8.72-12.03Z"/>
  <path class="cls-6" d="M137.28,143.53c0-1.16-.15-2.35,.03-3.49,.47-2.99,1.08-5.96,1.64-8.93,4.75,1.53,10.49,1.95,13.9,4.99,2.11,1.88,2.42,9.28,.47,11.45-3.5,3.89-9.3,5.74-14.22,8.29-.16,.08-1.68-1.48-1.73-2.33-.21-3.31-.09-6.65-.09-9.98Z"/>
  <path class="cls-2" d="M192.65,164.05c8.52,2.67,17.04,5.35,25.57,8.02,.03,.33,.12,.67,.09,.99-.83,11.25-1.14,11.46-11.39,7.91-1.26-.44-2.5-.9-3.76-1.32q-11.16-3.78-10.51-15.6Z"/>
  <path class="cls-2" d="M65.44,36.08c18.38-5.31,36.36-2.08,54.26,2.57,.57,.15,1.03,.69,1.54,1.05-.68,.19-1.36,.54-2.04,.54-13.12,.09-26.24,.15-39.36,.21-1.76-.72-3.47-1.59-5.28-2.12-3.01-.87-6.08-1.52-9.13-2.26Z"/>
  <path class="cls-4" d="M59.42,62.93c-1.85,1.64-3.9,3.46-5.95,5.27-.67-1.55-1.59-3.04-1.98-4.66-2.81-11.62-5.53-23.26-8.2-34.92-.22-.94,.14-2.02,.24-3.03,.57,.5,1.41,.89,1.66,1.52,4.61,11.4,9.14,22.82,13.69,34.24,.12,.31,.22,.62,.55,1.58Z"/>
  <path class="cls-2" d="M44.96,70.52c-4.82-5.4-9.64-10.81-14.46-16.21,3.56-2.86,7.12-5.71,10.69-8.57,1.12,3.63,2.31,7.24,3.35,10.9,.9,3.17,1.9,6.36,2.28,9.61,.16,1.33-1.2,2.84-1.86,4.27Z"/>
  <path class="cls-5" d="M41.98,7.59c1.88,2.81,5.47,5.81,5.18,8.37-.3,2.67-4.36,6.84-6.75,6.83-2.46-.01-6.56-4.09-6.88-6.75-.3-2.57,3.31-5.6,5.21-8.43,1.08,0,2.16-.02,3.23-.02Z"/>
  <path class="cls-5" d="M227.43,41.14c1.91,2.84,5.58,5.92,5.23,8.44-.38,2.68-4.55,6.65-7.11,6.67-2.36,.02-6.4-4.26-6.67-6.95-.25-2.54,3.44-5.48,5.4-8.24,1.05,.03,2.1,.05,3.15,.08Z"/>
  <path class="cls-1" d="M65.44,36.08c3.05,.74,6.12,1.39,9.13,2.26,1.81,.52,3.52,1.4,5.28,2.12-3.59,2.64-7.4,5.04-10.72,7.99-2.75,2.44-3.75,1.56-4.67-1.35-.6-1.9-1.3-3.78-2.18-5.56-1.75-3.53-.79-5.32,3.17-5.46Z"/>
  <path class="cls-3" d="M99.31,72.29c9.48,0,18.97-.11,28.45,.03,13.03,.19,21.75,7.71,22.12,18.85,.39,11.57-7.69,20.03-21.02,20.37-19.79,.5-39.6,.48-59.39-.04-13.05-.34-20.42-8.45-20.16-20.47,.24-11.08,8.72-18.53,21.54-18.7,9.48-.13,18.97-.03,28.45-.03Zm21.81,3.84c-8.9,.03-16.15,7.25-16.18,16.1-.03,9.05,7.41,16.31,16.58,16.19,8.84-.12,16.04-7.51,15.91-16.34-.13-8.87-7.4-15.98-16.31-15.95Zm-29.5,16.18c.01-8.98-7.04-16.11-16-16.18-9.17-.07-16.38,7.17-16.31,16.37,.07,8.92,7.26,15.96,16.25,15.93,8.96-.04,16.04-7.15,16.06-16.12Z"/>
  <path class="cls-6" d="M121.12,76.13c8.92-.03,16.19,7.08,16.31,15.95,.13,8.83-7.07,16.23-15.91,16.34-9.17,.12-16.61-7.14-16.58-16.19,.03-8.85,7.28-16.07,16.18-16.1Zm.38,9.93c-9.35-2.18-7.15,3.39-7.3,6.2-.06,1.21,2.85,3.26,4.71,3.75,6.55,1.72,4.66-3.85,4.8-6.71,.08-1.57-2.22-3.25-2.21-3.24Z"/>
  <path class="cls-6" d="M91.63,92.31c-.01,8.97-7.1,16.08-16.06,16.12-8.99,.04-16.18-7.01-16.25-15.93-.07-9.2,7.13-16.44,16.31-16.37,8.95,.07,16.01,7.2,16,16.18Zm-16.29-1.29c.78-3.98,.05-5.94-4.82-5.95-4.8,0-5.76,1.6-5.63,5.93,.11,3.82,.34,5.97,5.21,5.93,4.78-.04,6.33-1.52,5.23-5.91Z"/>
  <path class="cls-3" d="M121.51,86.06s2.29,1.67,2.21,3.24c-.14,2.85,1.76,8.43-4.8,6.71-1.87-.49-4.78-2.54-4.71-3.75,.14-2.81-2.06-8.38,7.3-6.2Z"/>
  <path class="cls-3" d="M75.34,91.02c1.1,4.4-.46,5.88-5.23,5.91-4.88,.04-5.1-2.11-5.21-5.93-.13-4.33,.83-5.93,5.63-5.93,4.87,0,5.6,1.97,4.82,5.95Z"/>
</svg>